<svg xmlns="http://www.w3.org/2000/svg" width="315" height="268" viewBox="0 0 315 268">
  <g fill="none" fill-rule="evenodd">
    <path fill="#000" d="M20.6805522,67.6535609 C23.5453905,67.6535609 26.2535581,67.3923791 28.8050548,66.8700154 C31.3565515,66.3476517 33.5797854,65.6685789 35.4747567,64.832797 C37.3697279,63.9970151 39.1229493,63.004524 40.7344209,61.8553239 C42.3458925,60.7061238 43.696246,59.5494613 44.7854815,58.3853365 C45.8747169,57.2212117 46.844584,55.9973882 47.6950829,54.713866 C48.5455818,53.4303437 49.1946468,52.2811436 49.6422778,51.2662656 C50.0899088,50.2513875 50.4480136,49.2812835 50.7165922,48.3559535 C51.1642232,46.7739378 51.3880387,45.2516207 51.3880387,43.7890024 C51.3880387,40.804067 50.5450003,38.2519472 48.8589235,36.1326431 C47.1728468,34.0133389 44.8526261,32.670118 41.8982615,32.1029803 C44.0767324,31.3567464 46.4118741,29.6926449 48.9036866,27.1106758 C51.3954992,24.5287067 53.0144313,21.9392752 53.760483,19.3423814 C54.1782719,17.8797631 54.3871664,16.4171447 54.3871664,14.9545264 C54.3871664,13.909799 54.2827191,12.9247703 54.0738247,11.9994403 C53.8649302,11.0741103 53.4546018,10.1040063 52.8428394,9.08912831 C52.2310771,8.07425027 51.4402623,7.208619 50.4703951,6.4922345 C49.500528,5.77585001 48.172556,5.18632526 46.4864792,4.72366028 C44.8004025,4.26099529 42.8532076,4.0296628 40.6448947,4.0296628 L40.6448947,4.0296628 L18.2185817,4.0296628 L2.84217094e-14,67.6535609 L20.6805522,67.6535609 Z M18.0395293,31.2074997 L24.1720739,9.85028683 L36.4371633,9.85028683 C40.2271058,9.85028683 42.8979707,10.4995103 44.4497582,11.7979572 C46.0015457,13.0964041 46.7774394,14.7455809 46.7774394,16.7454876 C46.7774394,17.7305163 46.6282291,18.715545 46.3298084,19.7005737 C46.0015457,20.8945478 45.5315331,21.9915116 44.9197708,22.991465 C44.3080084,23.9914183 43.6589434,24.8495872 42.9725759,25.5659717 C42.2862084,26.2823562 41.4357095,26.9315797 40.4210792,27.5136421 C39.4064489,28.0957045 38.4664238,28.5732942 37.6010039,28.9464111 C36.735584,29.319528 35.6612696,29.6478709 34.3780607,29.9314398 C33.0948519,30.2150086 32.0056164,30.4239541 31.1103544,30.5582762 C30.2150924,30.6925983 29.0512518,30.8119957 27.6188326,30.9164684 C26.1864134,31.0209412 25.0747965,31.0806399 24.2839817,31.0955646 C23.4931669,31.1104892 22.396471,31.1254139 20.9938939,31.1403386 C19.5913167,31.1552633 18.6065285,31.1776503 18.0395293,31.2074997 L18.0395293,31.2074997 Z M22.1703241,60.9360571 L9.53454028,60.9374563 L16.3832946,37.1176718 C24.5600208,36.6997808 28.9468046,36.4908353 29.5436459,36.4908353 C33.9005877,36.4908353 37.3025833,37.2893055 39.7496327,38.886246 C42.1966822,40.4831864 43.4202069,42.744275 43.4202069,45.6695117 C43.4202069,46.7440884 43.2411545,47.9082132 42.8830497,49.1618861 C42.4354187,50.7737512 41.7714327,52.2139826 40.8910918,53.4825801 C40.0107508,54.7511777 39.0856467,55.7884427 38.1157796,56.5943753 C37.1459124,57.4003078 35.9895323,58.0943053 34.6466393,58.6763677 C33.3037463,59.2584301 32.1100637,59.6912457 31.0655913,59.9748146 C30.021119,60.2583835 28.7826732,60.4822536 27.350254,60.6464251 C25.9178348,60.8105965 24.8360599,60.9001446 24.1049293,60.9150693 C23.3737987,60.9299939 22.4710762,60.9374563 21.3967618,60.9374563 L22.1703241,60.9360571 Z M63.5636019,91.4285714 L107.789545,24.536169 L100.179818,24.536169 L76.7687163,61.4299706 L73.3667207,24.536169 L65.3093628,24.536169 L70.6361716,70.2056807 L55.7300594,91.4285714 L63.5636019,91.4285714 Z M127.530072,68.5490416 C130.991751,68.5490416 134.244537,68.161 137.288427,67.3849167 C140.332318,66.6088335 142.95842,65.5939555 145.166733,64.3402826 C147.375046,63.0866098 149.344622,61.6314538 151.075462,59.9748146 C152.806302,58.3181755 154.186498,56.6466116 155.216049,54.9601231 C156.2456,53.2736346 156.999112,51.5796838 157.476585,49.8782706 C157.924216,48.2962548 158.148032,46.8634858 158.148032,45.5799636 C158.148032,43.5800569 157.655638,41.8040203 156.67085,40.2518539 C155.686061,38.6996875 154.395392,37.4236276 152.798842,36.4236743 C151.202291,35.4237209 149.44907,34.5133156 147.539177,33.6924584 C145.629285,32.8716011 143.719393,32.1104426 141.8095,31.4089828 C139.899608,30.707523 138.146387,29.9836761 136.549836,29.2374423 C134.953286,28.4912084 133.662616,27.5658785 132.677828,26.4614524 C131.69304,25.3570263 131.200646,24.1033534 131.200646,22.7004337 C131.200646,21.9840493 131.305093,21.2975141 131.513988,20.6408283 C132.349565,17.7155916 134.565339,15.3127186 138.161308,13.4322093 C141.757277,11.5517 145.763574,10.6114454 150.1802,10.6114454 C154.149195,10.6114454 158.580742,11.3875286 163.474841,12.939695 L163.474841,12.939695 L167.951151,5.99972016 C162.788473,4.29830698 157.760085,3.44760039 152.865986,3.44760039 C145.524838,3.44760039 139.05657,5.24602397 133.461182,8.84287113 C127.865795,12.4397183 124.33697,16.7902616 122.874709,21.8945012 C122.45692,23.3272702 122.248026,24.7003405 122.248026,26.013712 C122.248026,27.9539201 122.74788,29.6777203 123.74759,31.1851126 C124.747299,32.692505 126.037968,33.9163285 127.619598,34.8565832 C129.201227,35.7968378 130.954449,36.6475444 132.879262,37.408703 C134.804075,38.1698615 136.721428,38.8937083 138.63132,39.5802435 C140.541213,40.2667786 142.286974,40.9906254 143.868603,41.751784 C145.450233,42.5129425 146.740902,43.4755842 147.740611,44.639709 C148.74032,45.8038338 149.240175,47.13213 149.240175,48.6245977 C149.240175,49.4603796 149.120807,50.2513875 148.88207,50.9976214 C148.01665,54.0422555 145.890403,56.4749778 142.503329,58.2957884 C139.116254,60.116599 135.15472,61.0270043 130.618726,61.0270043 C126.321468,61.0270043 120.830528,59.6390094 114.145905,56.8630194 L114.145905,56.8630194 L109.445779,64.2507346 C112.668722,65.6835036 115.623087,66.7580803 118.308873,67.4744648 C120.994659,68.1908493 124.068392,68.5490416 127.530072,68.5490416 Z M173.85988,67.6535609 L193.242302,0 L185.901154,0 L166.518732,67.6535609 L173.85988,67.6535609 Z M202.821606,67.6535609 L189.929833,42.4457814 L214.594301,22.5213376 L206.49218,22.5213376 L181.559133,43.20694 L194.003275,67.6535609 L202.821606,67.6535609 Z M218.936322,91.4285714 L263.162264,24.536169 L255.552537,24.536169 L232.141436,61.4299706 L228.73944,24.536169 L220.682083,24.536169 L226.008891,70.2056807 L211.102779,91.4285714 L218.936322,91.4285714 Z" transform="translate(26 176)"/>
    <g fill="#000">
      <path d="M43.4196374,112.390244 L81.3411633,79.5977179 C81.4853516,79.4532574 81.6295399,79.4532574 81.7737282,79.3087969 L314.205285,8.52651283e-14 L93.8855461,108.489811 C93.7413578,108.489811 93.5971695,108.634272 93.4529812,108.634272 L43.4196374,112.390244 Z" opacity=".4"/>
      <polygon points="142.145 128 96.855 107.938 .455 0 117.725 85.192"/>
    </g>
  </g>
</svg>
